<svg width="50" height="50" xmlns="http://www.w3.org/2000/svg" fill="none">
<rect width="56" height="56" fill="#2F88FF"/>

 <g>
  <title>Layer 1</title>
  <path id="svg_9" d="m0.07431,14.05724" opacity="NaN" stroke="none" fill="#2F88FF"/>
  <ellipse opacity="0.9" stroke-width="0" ry="16.09657" rx="16.46695" id="svg_12" cy="2.05942" cx="0.80887" stroke="none" fill="#639AFF"/>
  <ellipse opacity="0.7" stroke-width="0" ry="14.09657" rx="13.46695" id="svg_13" cy="50.82026" cx="47.54092" stroke="none" fill="#2F88FF"/>
  <g id="svg_14">
   <path stroke="white" id="svg_1" stroke-linejoin="round" fill="#2F88FF" d="m21.10185,15.12824l-5.1529,0c-0.56917,0 -1.03058,0.46141 -1.03058,1.03058l0,5.1529c0,0.56919 0.46141,1.03058 1.03058,1.03058l5.1529,0c0.56919,0 1.03058,-0.46139 1.03058,-1.03058l0,-5.1529c0,-0.56917 -0.46139,-1.03058 -1.03058,-1.03058z"/>
   <path stroke="white" id="svg_5" stroke-linejoin="round" fill="#2F88FF" d="m33.27738,15.12824l-5.1529,0c-0.56917,0 -1.03058,0.46141 -1.03058,1.03058l0,5.1529c0,0.56919 0.46141,1.03058 1.03058,1.03058l5.1529,0c0.56919,0 1.03058,-0.46139 1.03058,-1.03058l0,-5.1529c0,-0.56917 -0.46139,-1.03058 -1.03058,-1.03058z"/>
   <path stroke="white" id="svg_6" stroke-linejoin="round" fill="#2F88FF" d="m33.28522,27.6443l-5.1529,0c-0.56917,0 -1.03058,0.46141 -1.03058,1.03058l0,5.1529c0,0.56919 0.46141,1.03058 1.03058,1.03058l5.1529,0c0.56919,0 1.03058,-0.46139 1.03058,-1.03058l0,-5.1529c0,-0.56917 -0.46139,-1.03058 -1.03058,-1.03058z"/>
   <path stroke="white" id="svg_7" stroke-linejoin="round" fill="#2F88FF" d="m21.10185,27.58099l-5.1529,0c-0.56917,0 -1.03058,0.46141 -1.03058,1.03058l0,5.1529c0,0.56919 0.46141,1.03058 1.03058,1.03058l5.1529,0c0.56919,0 1.03058,-0.46139 1.03058,-1.03058l0,-5.1529c0,-0.56917 -0.46139,-1.03058 -1.03058,-1.03058z"/>
  </g>
 </g>
</svg>